<?xml version="1.0" encoding="UTF-8" standalone="no"?>
<!-- Created with Inkscape (http://www.inkscape.org/) -->

<svg
   xmlns:dc="http://purl.org/dc/elements/1.1/"
   xmlns:cc="http://creativecommons.org/ns#"
   xmlns:rdf="http://www.w3.org/1999/02/22-rdf-syntax-ns#"
   xmlns:svg="http://www.w3.org/2000/svg"
   xmlns="http://www.w3.org/2000/svg"
   xmlns:sodipodi="http://sodipodi.sourceforge.net/DTD/sodipodi-0.dtd"
   xmlns:inkscape="http://www.inkscape.org/namespaces/inkscape"
   id="svg2"
   version="1.1"
   inkscape:version="0.48.4 r9939"
   width="32"
   height="32"
   xml:space="preserve"
   sodipodi:docname="logo_gmail.svg"><metadata
     id="metadata8"><rdf:RDF><cc:Work
         rdf:about=""><dc:format>image/svg+xml</dc:format><dc:type
           rdf:resource="http://purl.org/dc/dcmitype/StillImage" /><dc:title /></cc:Work></rdf:RDF></metadata><defs
     id="defs6"><clipPath
       clipPathUnits="userSpaceOnUse"
       id="clipPath16"><path
         d="m 0,283.46 292,0 L 292,0 0,0 0,283.46 z"
         id="path18" /></clipPath></defs><sodipodi:namedview
     pagecolor="#ffffff"
     bordercolor="#666666"
     borderopacity="1"
     objecttolerance="10"
     gridtolerance="10"
     guidetolerance="10"
     inkscape:pageopacity="0"
     inkscape:pageshadow="2"
     inkscape:window-width="945"
     inkscape:window-height="659"
     id="namedview4"
     showgrid="false"
     inkscape:zoom="0.66605515"
     inkscape:cx="182.5"
     inkscape:cy="177.16251"
     inkscape:window-x="0"
     inkscape:window-y="24"
     inkscape:window-maximized="0"
     inkscape:current-layer="g10" /><g
     id="g10"
     inkscape:groupmode="layer"
     inkscape:label="gmail"
     transform="matrix(1.25,0,0,-1.25,0,354.325)"><g
       id="g12"
       transform="matrix(0.09665748,0,0,0.09665748,-1.3123442,256.9461)"><g
         id="g14"
         clip-path="url(#clipPath16)"><g
           id="g20"
           transform="translate(21.6172,172.0542)"><path
             d="m 0,0 c -0.228,-0.358 -0.456,-0.715 -0.686,-1.073 4.834,-2.875 9.668,-5.752 14.5,-8.627 0.339,0.315 0.676,0.632 1.012,0.95 -0.737,1.618 -1.076,4.161 -2.289,4.689 C 8.527,-2.315 4.204,-1.297 0,0 m 234.707,-10.312 c 5.611,3.487 10.53,6.541 16.24,10.086 -7.877,0 -15.933,-4.891 -16.24,-10.086 M 122.699,21.447 C 106.132,38.337 89.958,54.605 74.097,71.173 70.615,74.809 67.082,76.123 62.175,75.99 50.62,75.677 39.052,75.901 27.491,75.877 c -1.851,-0.002 -3.699,-0.159 -5.454,-0.24 -0.2,-1.108 -0.37,-1.615 -0.373,-2.125 -0.136,-28.38 -0.274,-56.759 -0.321,-85.139 -0.003,-1.219 0.509,-3.046 1.388,-3.57 10.175,-6.05 20.465,-11.904 31.565,-18.291 l 0,75.718 c 23.513,-23.189 46.144,-45.512 69.041,-68.094 23.741,22.71 47.056,45.013 71.293,68.2 l 0,-76.906 c 10.804,6.412 21.038,12.382 31.102,18.621 1.086,0.676 1.685,2.928 1.683,4.449 -0.009,27.155 -0.139,54.307 -0.262,81.461 -0.008,1.855 -0.16,3.71 -0.257,5.927 -8.753,0 -16.964,0.03 -25.172,-0.008 -7.354,-0.032 -15.483,1.801 -21.837,-0.754 C 173.532,72.57 168.924,65.632 163.604,60.56 150.313,47.884 137.052,35.175 122.699,21.447 m 133.432,-180.47 c -2.599,0.236 -5.196,0.675 -7.792,0.675 -82.618,0.036 -165.236,0.036 -247.854,0.004 -2.606,0 -5.211,-0.381 -7.811,-0.556 -0.043,30.275 -0.096,60.551 -0.124,90.825 -0.021,21.325 -0.004,42.648 -0.004,63.971 -0.532,-1.211 -0.532,-2.423 -0.532,-3.637 -0.028,-47.256 -0.068,-94.509 -0.049,-141.765 0.002,-3.112 0.441,-6.223 0.679,-9.334 2.824,-4.809 7.624,-3.631 11.824,-3.633 79.907,-0.07 159.817,-0.054 239.724,-0.045 1.925,0 3.978,-0.3 5.745,0.26 2.201,0.698 4.162,2.146 6.232,3.299 0.22,3.825 0.626,7.649 0.628,11.476 0.032,45.714 0.007,91.428 -0.002,137.142 l 0,7.313 c -0.588,-2.782 -0.588,-5.565 -0.59,-8.35 -0.023,-49.215 -0.049,-98.43 -0.074,-147.645"
             style="fill:#ffffff;fill-opacity:1;fill-rule:nonzero;stroke:none"
             id="path22"
             inkscape:connector-curvature="0" /></g><g
           id="g24"
           transform="translate(144.3159,193.5015)"><path
             d="m 0,0 c 14.354,13.728 27.615,26.437 40.905,39.112 5.32,5.073 9.928,12.011 16.283,14.567 6.354,2.555 14.483,0.721 21.837,0.754 8.208,0.038 16.419,0.008 25.172,0.008 0.097,-2.217 0.249,-4.072 0.258,-5.927 0.123,-27.154 0.253,-54.306 0.261,-81.461 0.002,-1.521 -0.596,-3.774 -1.682,-4.449 -10.065,-6.239 -20.299,-12.209 -31.103,-18.621 l 0,76.906 C 47.694,-2.298 24.379,-24.601 0.639,-47.311 -22.259,-24.729 -44.89,-2.407 -68.403,20.783 l 0,-75.718 c -11.099,6.387 -21.389,12.241 -31.565,18.291 -0.879,0.524 -1.39,2.351 -1.388,3.569 0.047,28.381 0.185,56.76 0.321,85.139 0.003,0.511 0.173,1.018 0.373,2.125 1.755,0.082 3.603,0.239 5.454,0.241 11.562,0.024 23.129,-0.2 34.685,0.113 4.906,0.132 8.44,-1.182 11.921,-4.817 C -32.741,33.158 -16.566,16.89 0,0"
             style="fill:#2b2b2a;fill-opacity:1;fill-rule:evenodd;stroke:none"
             id="path26"
             inkscape:connector-curvature="0" /></g><g
           id="g28"
           transform="translate(14.2871,13.125)"><path
             d="m 0,0 c 2.604,0.204 5.209,0.585 7.815,0.585 82.618,0.032 165.236,0.032 247.854,-0.004 2.596,0 5.193,-0.438 7.792,-0.675 l 0.034,0.036 c -2.066,-1.125 -4.027,-2.573 -6.227,-3.271 -1.768,-0.56 -3.821,-0.26 -5.746,-0.26 -79.907,-0.009 -159.817,-0.025 -239.724,0.045 -4.2,0.002 -9,-1.176 -11.824,3.633 L 0,0 z"
             style="fill:#2b2b2a;fill-opacity:1;fill-rule:evenodd;stroke:none"
             id="path30"
             inkscape:connector-curvature="0" /></g><g
           id="g32"
           transform="translate(277.748,13.0312)"><path
             d="m 0,0 c 0.025,49.215 0.051,98.43 0.074,147.645 0.002,2.785 0.002,5.568 0.59,8.35 l 0,-7.313 C 0.673,102.968 0.698,57.254 0.666,11.54 0.664,7.713 0.258,3.889 0.036,0.051 0.034,0.036 0,0 0,0"
             style="fill:#2b2b2a;fill-opacity:1;fill-rule:evenodd;stroke:none"
             id="path34"
             inkscape:connector-curvature="0" /></g><g
           id="g36"
           transform="translate(14.2612,13.2139)"><path
             d="m 0,0 c -0.238,3.111 -0.677,6.223 -0.679,9.334 -0.019,47.256 0.021,94.51 0.049,141.765 0,1.214 0,2.426 0.532,3.638 0,-21.324 -0.017,-42.647 0.004,-63.971 C -0.066,60.491 -0.013,30.215 0.028,-0.074 0.026,-0.089 0,0 0,0"
             style="fill:#2b2b2a;fill-opacity:1;fill-rule:evenodd;stroke:none"
             id="path38"
             inkscape:connector-curvature="0" /></g><g
           id="g40"
           transform="translate(256.3242,161.7427)"><path
             d="M 0,0 C 0.307,5.194 8.363,10.086 16.24,10.086 10.53,6.54 5.611,3.486 0,0"
             style="fill:#2b2b2a;fill-opacity:1;fill-rule:evenodd;stroke:none"
             id="path42"
             inkscape:connector-curvature="0" /></g><g
           id="g44"
           transform="translate(21.6172,172.0542)"><path
             d="M 0,0 C 4.204,-1.297 8.527,-2.315 12.537,-4.061 13.75,-4.589 14.089,-7.132 14.826,-8.75 14.49,-9.068 14.153,-9.385 13.814,-9.7 8.982,-6.825 4.148,-3.948 -0.686,-1.073 -0.456,-0.715 -0.228,-0.358 0,0"
             style="fill:#2b2b2a;fill-opacity:1;fill-rule:evenodd;stroke:none"
             id="path46"
             inkscape:connector-curvature="0" /></g></g></g></g></svg>