<?xml version="1.0" encoding="UTF-8" standalone="no"?>
<!-- Created with Inkscape (http://www.inkscape.org/) -->

<svg
   xmlns:dc="http://purl.org/dc/elements/1.1/"
   xmlns:cc="http://creativecommons.org/ns#"
   xmlns:rdf="http://www.w3.org/1999/02/22-rdf-syntax-ns#"
   xmlns:svg="http://www.w3.org/2000/svg"
   xmlns="http://www.w3.org/2000/svg"
   xmlns:sodipodi="http://sodipodi.sourceforge.net/DTD/sodipodi-0.dtd"
   xmlns:inkscape="http://www.inkscape.org/namespaces/inkscape"
   id="svg2"
   version="1.1"
   inkscape:version="0.48.4 r9939"
   width="32"
   height="32"
   xml:space="preserve"
   sodipodi:docname="logo_gmail.svg"><metadata
     id="metadata8"><rdf:RDF><cc:Work
         rdf:about=""><dc:format>image/svg+xml</dc:format><dc:type
           rdf:resource="http://purl.org/dc/dcmitype/StillImage" /><dc:title /></cc:Work></rdf:RDF></metadata><defs
     id="defs6"><clipPath
       clipPathUnits="userSpaceOnUse"
       id="clipPath16"><path
         d="m 0,283.46 283,0 L 283,0 0,0 0,283.46 z"
         id="path18" /></clipPath></defs><sodipodi:namedview
     pagecolor="#ffffff"
     bordercolor="#666666"
     borderopacity="1"
     objecttolerance="10"
     gridtolerance="10"
     guidetolerance="10"
     inkscape:pageopacity="0"
     inkscape:pageshadow="2"
     inkscape:window-width="900"
     inkscape:window-height="537"
     id="namedview4"
     showgrid="false"
     inkscape:zoom="2.1681979"
     inkscape:cx="176.875"
     inkscape:cy="177.16251"
     inkscape:window-x="0"
     inkscape:window-y="24"
     inkscape:window-maximized="0"
     inkscape:current-layer="g10" /><g
     id="g10"
     inkscape:groupmode="layer"
     inkscape:label="gmail"
     transform="matrix(1.25,0,0,-1.25,0,354.325)"><g
       id="g12"
       transform="matrix(0.09683933,0,0,0.10727627,-0.99962803,255.45571)"><g
         id="g14"
         clip-path="url(#clipPath16)"><g
           id="g20"
           transform="translate(18.3477,184.7056)"><path
             d="m 0,0 c -0.227,-0.357 -0.455,-0.715 -0.685,-1.072 4.826,-2.869 9.651,-5.741 14.474,-8.611 0.337,0.315 0.673,0.632 1.009,0.948 -0.735,1.616 -1.073,4.154 -2.285,4.681 C 8.511,-2.311 4.196,-1.294 0,0 m 234.266,-10.292 c 5.601,3.479 10.511,6.527 16.21,10.066 -7.863,0 -15.904,-4.882 -16.21,-10.066 M 122.468,21.407 c -16.535,16.858 -32.679,33.095 -48.51,49.633 -3.475,3.627 -7.002,4.939 -11.899,4.808 -11.534,-0.313 -23.08,-0.09 -34.62,-0.113 -1.847,-0.003 -3.692,-0.159 -5.443,-0.24 -0.2,-1.106 -0.371,-1.612 -0.372,-2.122 -0.136,-28.325 -0.274,-56.651 -0.322,-84.979 -0.002,-1.216 0.509,-3.04 1.386,-3.562 10.156,-6.039 20.427,-11.883 31.506,-18.257 l 0,75.575 c 23.469,-23.145 46.057,-45.426 68.912,-67.965 23.696,22.667 46.967,44.928 71.159,68.071 l 0,-76.761 c 10.782,6.4 20.999,12.359 31.044,18.586 1.084,0.674 1.681,2.923 1.679,4.44 -0.008,27.104 -0.138,54.205 -0.261,81.309 -0.009,1.851 -0.16,3.703 -0.257,5.916 -8.737,0 -16.933,0.029 -25.124,-0.009 -7.34,-0.032 -15.454,1.798 -21.797,-0.753 -6.343,-2.55 -10.943,-9.476 -16.253,-14.539 C 150.031,47.794 136.794,35.108 122.468,21.407 m 133.181,-180.131 c -2.592,0.234 -5.186,0.674 -7.777,0.674 -82.463,0.036 -164.925,0.036 -247.387,0.004 -2.602,0 -5.202,-0.38 -7.797,-0.556 -0.042,30.217 -0.096,60.437 -0.124,90.654 -0.021,21.284 -0.004,42.568 -0.004,63.852 -0.531,-1.21 -0.531,-2.42 -0.531,-3.631 -0.028,-47.167 -0.068,-94.333 -0.049,-141.498 0.002,-3.108 0.44,-6.212 0.678,-9.317 2.819,-4.8 7.61,-3.624 11.801,-3.625 79.757,-0.073 159.518,-0.053 239.275,-0.045 1.921,0 3.97,-0.3 5.734,0.257 2.196,0.698 4.153,2.145 6.219,3.294 0.22,3.817 0.625,7.634 0.627,11.453 0.033,45.63 0.007,91.257 -0.002,136.886 l 0,7.299 c -0.585,-2.776 -0.585,-5.554 -0.587,-8.334 -0.024,-49.123 -0.05,-98.246 -0.076,-147.367"
             style="fill:#bf272f;fill-opacity:1;fill-rule:nonzero;stroke:none"
             id="path22"
             inkscape:connector-curvature="0" /></g><g
           id="g24"
           transform="translate(140.8159,206.1123)"><path
             d="m 0,0 c 14.326,13.701 27.563,26.387 40.828,39.039 5.31,5.063 9.91,11.988 16.253,14.539 6.342,2.55 14.457,0.72 21.796,0.752 8.192,0.038 16.388,0.009 25.124,0.009 0.098,-2.213 0.249,-4.065 0.257,-5.916 0.123,-27.104 0.254,-54.205 0.262,-81.308 0.002,-1.518 -0.596,-3.767 -1.68,-4.441 -10.045,-6.227 -20.261,-12.186 -31.044,-18.586 l 0,76.762 C 47.605,-2.294 24.334,-24.555 0.638,-47.222 c -22.855,22.539 -45.443,44.82 -68.912,67.966 l 0,-75.576 c -11.079,6.374 -21.35,12.218 -31.506,18.257 -0.878,0.522 -1.388,2.346 -1.386,3.562 0.047,28.328 0.186,56.654 0.321,84.979 0.002,0.511 0.173,1.016 0.373,2.122 1.751,0.081 3.596,0.238 5.443,0.24 11.54,0.024 23.086,-0.2 34.619,0.113 4.898,0.131 8.425,-1.18 11.9,-4.808 C -32.679,33.095 -16.535,16.858 0,0"
             style="fill:#962c26;fill-opacity:1;fill-rule:evenodd;stroke:none"
             id="path26"
             inkscape:connector-curvature="0" /></g><g
           id="g28"
           transform="translate(11.0312,26.0742)"><path
             d="m 0,0 c 2.6,0.205 5.199,0.585 7.801,0.585 82.462,0.032 164.925,0.032 247.387,-0.004 2.591,0 5.185,-0.439 7.778,-0.674 l 0.033,0.035 c -2.062,-1.121 -4.019,-2.568 -6.215,-3.265 -1.763,-0.558 -3.812,-0.258 -5.733,-0.258 C 171.293,-3.589 91.532,-3.608 11.776,-3.536 7.584,-3.534 2.793,-4.711 -0.026,0.089 L 0,0 z"
             style="fill:#962c26;fill-opacity:1;fill-rule:evenodd;stroke:none"
             id="path30"
             inkscape:connector-curvature="0" /></g><g
           id="g32"
           transform="translate(273.9971,25.9814)"><path
             d="m 0,0 c 0.025,49.121 0.052,98.244 0.075,147.367 0.002,2.78 0.002,5.558 0.588,8.334 l 0,-7.299 C 0.672,102.773 0.697,57.146 0.665,11.517 0.663,7.697 0.258,3.88 0.036,0.051 0.033,0.035 0,0 0,0"
             style="fill:#bf272f;fill-opacity:1;fill-rule:evenodd;stroke:none"
             id="path34"
             inkscape:connector-curvature="0" /></g><g
           id="g36"
           transform="translate(11.0054,26.1631)"><path
             d="m 0,0 c -0.237,3.105 -0.676,6.21 -0.678,9.317 -0.019,47.165 0.022,94.331 0.049,141.498 0,1.212 0,2.422 0.531,3.631 0,-21.283 -0.016,-42.567 0.005,-63.851 C -0.065,60.378 -0.012,30.157 0.028,-0.074 0.026,-0.089 0,0 0,0"
             style="fill:#bf272f;fill-opacity:1;fill-rule:evenodd;stroke:none"
             id="path38"
             inkscape:connector-curvature="0" /></g><g
           id="g40"
           transform="translate(252.6133,174.4131)"><path
             d="M 0,0 C 0.307,5.185 8.348,10.067 16.21,10.067 10.512,6.528 5.602,3.479 0,0"
             style="fill:#962c26;fill-opacity:1;fill-rule:evenodd;stroke:none"
             id="path42"
             inkscape:connector-curvature="0" /></g><g
           id="g44"
           transform="translate(18.3477,184.7056)"><path
             d="m 0,0 c 4.196,-1.294 8.511,-2.311 12.513,-4.054 1.212,-0.527 1.55,-3.065 2.285,-4.681 -0.336,-0.316 -0.672,-0.633 -1.009,-0.948 -4.823,2.87 -9.648,5.742 -14.474,8.611 C -0.455,-0.715 -0.227,-0.357 0,0"
             style="fill:#962c26;fill-opacity:1;fill-rule:evenodd;stroke:none"
             id="path46"
             inkscape:connector-curvature="0" /></g><g
           id="g48"
           transform="translate(10.9077,180.6094)"><path
             d="M 0,0 0.098,-154.446 263.089,-154.628 263.752,1.073 131.585,-70.096 0,0 z"
             style="fill:#ffffff;fill-opacity:1;fill-rule:nonzero;stroke:none"
             id="path50"
             inkscape:connector-curvature="0" /></g></g></g></g></svg>