<?xml version="1.0" encoding="UTF-8" standalone="no"?>
<!-- Created with Inkscape (http://www.inkscape.org/) -->

<svg
   xmlns:dc="http://purl.org/dc/elements/1.1/"
   xmlns:cc="http://creativecommons.org/ns#"
   xmlns:rdf="http://www.w3.org/1999/02/22-rdf-syntax-ns#"
   xmlns:svg="http://www.w3.org/2000/svg"
   xmlns="http://www.w3.org/2000/svg"
   xmlns:sodipodi="http://sodipodi.sourceforge.net/DTD/sodipodi-0.dtd"
   xmlns:inkscape="http://www.inkscape.org/namespaces/inkscape"
   id="svg2"
   version="1.1"
   inkscape:version="0.48.4 r9939"
   width="32"
   height="32"
   xml:space="preserve"
   sodipodi:docname="logo_facebook.svg"><metadata
     id="metadata8"><rdf:RDF><cc:Work
         rdf:about=""><dc:format>image/svg+xml</dc:format><dc:type
           rdf:resource="http://purl.org/dc/dcmitype/StillImage" /><dc:title /></cc:Work></rdf:RDF></metadata><defs
     id="defs6"><clipPath
       clipPathUnits="userSpaceOnUse"
       id="clipPath16"><path
         d="m 0,283.46 283,0 L 283,0 0,0 0,283.46 z"
         id="path18" /></clipPath></defs><sodipodi:namedview
     pagecolor="#ffffff"
     bordercolor="#666666"
     borderopacity="1"
     objecttolerance="10"
     gridtolerance="10"
     guidetolerance="10"
     inkscape:pageopacity="0"
     inkscape:pageshadow="2"
     inkscape:window-width="1090"
     inkscape:window-height="723"
     id="namedview4"
     showgrid="false"
     inkscape:zoom="29.90625"
     inkscape:cx="16"
     inkscape:cy="177.16251"
     inkscape:window-x="0"
     inkscape:window-y="24"
     inkscape:window-maximized="0"
     inkscape:current-layer="g10" /><g
     id="g10"
     inkscape:groupmode="layer"
     inkscape:label="facebook"
     transform="matrix(1.25,0,0,-1.25,0,354.325)"><g
       id="g12"
       transform="matrix(0.10322997,0,0,0.10322997,-2.2642565,256.02923)"><g
         id="g14"
         clip-path="url(#clipPath16)"><g
           id="g20"
           transform="translate(179.7871,224.1689)"><path
             d="m 0,0 c -7.734,0 -15.251,0.194 -22.75,-0.077 -4.171,-0.15 -8.389,-0.751 -12.451,-1.715 -10.915,-2.59 -18.577,-9.034 -21.45,-20.121 -1.17,-4.516 -1.572,-9.282 -1.86,-13.963 -0.309,-4.989 -0.116,-10.013 -0.04,-15.019 0.021,-1.38 -0.436,-1.751 -1.764,-1.732 -4.665,0.065 -9.334,-0.018 -13.999,0.05 -1.358,0.019 -1.739,-0.434 -1.729,-1.767 0.056,-7.682 0.064,-15.366 -0.005,-23.049 -0.014,-1.485 0.526,-1.801 1.88,-1.781 4.323,0.07 8.649,0.027 12.975,0.025 2.611,0 2.612,0 2.612,-2.533 0,-24.87 0.019,-49.741 -0.041,-74.611 -0.004,-1.761 0.497,-2.175 2.2,-2.159 9.218,0.083 18.439,0.036 27.659,0.043 0.599,0 1.199,0.059 2.035,0.103 l 0,2.869 c 0,24.699 0.014,49.4 -0.033,74.099 -0.003,1.692 0.438,2.26 2.201,2.231 6.201,-0.105 12.406,-0.018 18.61,-0.062 1.168,-0.007 1.736,0.321 1.936,1.552 1.231,7.559 2.527,15.109 3.803,22.665 0.396,2.346 0.394,2.349 -2.133,2.349 -7.511,0.001 -15.025,0.012 -22.536,-0.01 -1.091,-0.006 -1.883,0.076 -1.86,1.499 0.08,5.347 -0.073,10.704 0.181,16.042 0.243,5.075 4.162,8.545 9.241,8.572 5.179,0.027 10.359,0.054 15.537,-0.019 1.509,-0.021 1.927,0.484 1.913,1.968 C 0.064,-16.981 0.103,-9.412 0.098,-1.843 0.096,-1.29 0.04,-0.736 0,0 m 90.137,-80.049 0,-4.78 c -0.145,-1.119 -0.385,-2.234 -0.418,-3.357 -0.215,-7.462 -1.266,-14.816 -2.971,-22.067 -6.152,-26.187 -19.344,-48.208 -39.693,-65.77 -21.612,-18.65 -46.776,-28.671 -75.347,-29.998 -0.949,-0.043 -1.89,-0.271 -2.834,-0.413 l -5.464,0 c -1.002,0.145 -1.999,0.387 -3.003,0.417 -7.461,0.221 -14.816,1.263 -22.069,2.968 -26.248,6.168 -48.311,19.4 -65.887,39.82 -18.623,21.635 -28.618,46.811 -29.893,75.39 -0.04,0.894 -0.27,1.777 -0.411,2.668 l 0,5.464 c 0.143,0.946 0.386,1.889 0.412,2.839 0.207,7.52 1.259,14.929 2.975,22.238 6.193,26.373 19.522,48.509 40.079,66.111 21.586,18.482 46.685,28.395 75.136,29.664 0.89,0.041 1.774,0.27 2.661,0.411 l 5.464,0 c 1.001,-0.144 1.999,-0.384 3.004,-0.415 7.517,-0.236 14.92,-1.299 22.229,-3.019 26.254,-6.182 48.286,-19.463 65.832,-39.899 18.557,-21.606 28.516,-46.741 29.786,-75.256 0.045,-1.01 0.269,-2.01 0.412,-3.016"
             style="fill:#962c26;fill-opacity:1;fill-rule:nonzero;stroke:none"
             id="path22"
             inkscape:connector-curvature="0" /></g><g
           id="g24"
           transform="translate(179.7871,224.1689)"><path
             d="m 0,0 c 0.04,-0.736 0.096,-1.29 0.098,-1.843 0.005,-7.569 -0.034,-15.138 0.034,-22.708 0.014,-1.484 -0.404,-1.989 -1.913,-1.968 -5.178,0.073 -10.358,0.046 -15.537,0.019 -5.079,-0.027 -8.998,-3.497 -9.241,-8.572 -0.254,-5.338 -0.101,-10.695 -0.181,-16.042 -0.023,-1.423 0.769,-1.505 1.86,-1.499 7.511,0.022 15.025,0.011 22.536,0.01 2.527,0 2.529,-0.003 2.133,-2.349 -1.276,-7.556 -2.572,-15.106 -3.803,-22.665 -0.2,-1.231 -0.768,-1.559 -1.936,-1.552 -6.204,0.044 -12.409,-0.043 -18.61,0.062 -1.763,0.029 -2.204,-0.539 -2.201,-2.231 0.047,-24.699 0.033,-49.4 0.033,-74.099 l 0,-2.869 c -0.836,-0.044 -1.436,-0.103 -2.035,-0.103 -9.22,-0.007 -18.441,0.04 -27.659,-0.043 -1.703,-0.016 -2.204,0.398 -2.2,2.159 0.06,24.87 0.041,49.741 0.041,74.611 0,2.533 -10e-4,2.533 -2.612,2.533 -4.326,0.002 -8.652,0.045 -12.975,-0.025 -1.354,-0.02 -1.894,0.296 -1.88,1.781 0.069,7.683 0.061,15.367 0.005,23.049 -0.01,1.333 0.371,1.786 1.729,1.767 4.665,-0.068 9.334,0.015 13.999,-0.05 1.328,-0.019 1.785,0.352 1.764,1.732 -0.076,5.006 -0.269,10.03 0.04,15.019 0.288,4.681 0.69,9.447 1.86,13.963 2.873,11.087 10.535,17.531 21.45,20.121 4.062,0.964 8.28,1.565 12.451,1.715 C -15.251,0.194 -7.734,0 0,0"
             style="fill:#ffffff;fill-opacity:1;fill-rule:evenodd;stroke:none"
             id="path26"
             inkscape:connector-curvature="0" /></g></g></g></g></svg>