<?xml version="1.0" encoding="UTF-8" standalone="no"?>
<!-- Created with Inkscape (http://www.inkscape.org/) -->

<svg
   xmlns:dc="http://purl.org/dc/elements/1.1/"
   xmlns:cc="http://creativecommons.org/ns#"
   xmlns:rdf="http://www.w3.org/1999/02/22-rdf-syntax-ns#"
   xmlns:svg="http://www.w3.org/2000/svg"
   xmlns="http://www.w3.org/2000/svg"
   xmlns:sodipodi="http://sodipodi.sourceforge.net/DTD/sodipodi-0.dtd"
   xmlns:inkscape="http://www.inkscape.org/namespaces/inkscape"
   id="svg2"
   version="1.1"
   inkscape:version="0.48.4 r9939"
   width="300"
   height="118"
   xml:space="preserve"
   sodipodi:docname="logo.svg"><metadata
     id="metadata8"><rdf:RDF><cc:Work
         rdf:about=""><dc:format>image/svg+xml</dc:format><dc:type
           rdf:resource="http://purl.org/dc/dcmitype/StillImage" /><dc:title /></cc:Work></rdf:RDF></metadata><defs
     id="defs6"><clipPath
       clipPathUnits="userSpaceOnUse"
       id="clipPath16"><path
         d="m 0,283.46 436,0 L 436,0 0,0 0,283.46 z"
         id="path18" /></clipPath></defs><sodipodi:namedview
     pagecolor="#ffffff"
     bordercolor="#666666"
     borderopacity="1"
     objecttolerance="10"
     gridtolerance="10"
     guidetolerance="10"
     inkscape:pageopacity="0"
     inkscape:pageshadow="2"
     inkscape:window-width="1280"
     inkscape:window-height="724"
     id="namedview4"
     showgrid="false"
     inkscape:zoom="0.66605515"
     inkscape:cx="272.5"
     inkscape:cy="177.16251"
     inkscape:window-x="0"
     inkscape:window-y="24"
     inkscape:window-maximized="1"
     inkscape:current-layer="g10" /><g
     id="g10"
     inkscape:groupmode="layer"
     inkscape:label="logo"
     transform="matrix(1.25,0,0,-1.25,0,354.325)"><g
       id="g12"
       transform="matrix(0.59797719,0,0,0.59797719,-12.572411,150.09868)"><g
         id="g14"
         clip-path="url(#clipPath16)"><g
           id="g20"
           transform="translate(54.8379,151.0249)"><path
             d="M 0,0 C -6.203,0 -12.163,-13.014 -14.595,-25.055 -5.23,-24.448 3.041,-15.083 3.041,-4.987 3.041,-1.946 2.311,0 0,0 m -7.055,-45.975 c 9.609,0 15.447,5.351 21.529,12.284 l 4.135,0 C 11.676,-44.88 1.338,-56.192 -14.839,-56.192 c -11.432,0 -18.974,5.595 -18.974,19.339 0,13.987 7.906,43.299 32.84,43.299 10.825,0 13.379,-5.595 13.379,-11.676 0,-13.987 -13.379,-24.812 -27.974,-25.664 -0.122,-1.702 -0.244,-3.405 -0.244,-4.864 0,-8.272 2.919,-10.217 8.757,-10.217"
             style="fill:#ffffff;fill-opacity:1;fill-rule:nonzero;stroke:none"
             id="path22"
             inkscape:connector-curvature="0" /></g><g
           id="g24"
           transform="translate(95.0938,156.3765)"><path
             d="M 0,0 -1.581,-7.541 C 2.676,-3.892 7.298,0 13.136,0 c 5.473,0 8.392,-4.5 8.392,-9.122 0,-4.257 -2.798,-8.878 -8.757,-8.878 -6.812,0 -3.406,8.026 -7.055,8.026 -3.649,0 -5.838,-1.824 -8.879,-4.621 l -9.73,-46.219 -17.514,0 L -17.515,0 0,0 z"
             style="fill:#ffffff;fill-opacity:1;fill-rule:nonzero;stroke:none"
             id="path26"
             inkscape:connector-curvature="0" /></g><g
           id="g28"
           transform="translate(210.6328,116.1172)"><path
             d="m 0,0 c 0,-9.365 3.892,-9.486 6.081,-9.486 3.284,0 8.027,3.284 9.731,9.486 l 6.203,28.826 C 21.893,30.164 20.92,33.327 17.027,33.327 6.689,33.327 0,11.434 0,0 m 2.311,-41.475 c 2.554,0 5.473,3.649 7.054,10.826 l 0.73,3.526 c -6.203,-2.311 -11.919,-5.473 -11.919,-10.338 0,-1.703 1.459,-4.014 4.135,-4.014 M 41.962,40.259 29.92,-16.176 c 7.42,2.676 11.92,6.811 15.325,17.393 l 5.109,0 C 45.61,-14.838 36.366,-19.46 28.825,-21.527 l -1.824,-8.758 C 23.353,-47.678 13.136,-50.962 5.108,-50.962 c -7.42,0 -13.622,3.893 -13.622,11.798 0,10.217 10.703,15.325 19.826,18.123 l 1.459,6.446 c -3.528,-3.77 -8.271,-6.689 -14.595,-6.689 -8.272,0 -16.177,5.108 -16.177,19.582 0,16.42 10.095,42.569 31.258,42.569 6.933,0 9.852,-2.676 9.852,-6.202 l 0,-0.73 1.338,6.324 17.515,0 z"
             style="fill:#ffffff;fill-opacity:1;fill-rule:nonzero;stroke:none"
             id="path30"
             inkscape:connector-curvature="0" /></g><g
           id="g32"
           transform="translate(288.1064,151.0249)"><path
             d="M 0,0 C -6.203,0 -12.163,-13.014 -14.596,-25.055 -5.23,-24.448 3.041,-15.083 3.041,-4.987 3.041,-1.946 2.311,0 0,0 m -7.055,-45.975 c 9.609,0 15.448,5.351 21.529,12.284 l 4.135,0 C 11.676,-44.88 1.338,-56.192 -14.839,-56.192 c -11.432,0 -18.974,5.595 -18.974,19.339 0,13.987 7.906,43.299 32.84,43.299 10.825,0 13.379,-5.595 13.379,-11.676 0,-13.987 -13.379,-24.812 -27.974,-25.664 -0.122,-1.702 -0.244,-3.405 -0.244,-4.864 0,-8.272 2.919,-10.217 8.757,-10.217"
             style="fill:#ffffff;fill-opacity:1;fill-rule:nonzero;stroke:none"
             id="path34"
             inkscape:connector-curvature="0" /></g><g
           id="g36"
           transform="translate(333.2275,145.7949)"><path
             d="m 0,0 c -4.379,0 -7.663,-5.108 -9.487,-11.19 l -8.271,-39.042 -17.514,0 12.892,60.814 17.515,0 -1.338,-6.325 c 5.108,5.838 10.46,6.811 14.23,6.811 7.785,0 13.501,-4.014 13.501,-13.744 0,-9.852 -5.839,-24.569 -5.839,-31.38 0,-3.041 1.217,-5.108 4.866,-5.108 5.351,0 7.541,4.378 10.216,10.703 l 5.109,0 c -6.811,-19.947 -16.177,-22.501 -22.623,-22.501 -10.581,0 -14.352,6.811 -14.352,13.744 0,8.271 5.474,23.231 5.474,31.015 C 4.379,-2.189 2.919,0 0,0"
             style="fill:#ffffff;fill-opacity:1;fill-rule:nonzero;stroke:none"
             id="path38"
             inkscape:connector-curvature="0" /></g><g
           id="g40"
           transform="translate(380.416,116.1172)"><path
             d="m 0,0 c 0,-9.365 3.892,-9.486 6.081,-9.486 3.527,0 8.636,3.648 10.096,10.703 l 5.838,27.488 c 0,1.459 -1.095,4.622 -4.988,4.622 C 6.689,33.327 0,11.434 0,0 M 41.962,40.259 33.204,-1.095 c -0.365,-1.581 -0.486,-2.797 -0.486,-3.891 0,-3.406 1.581,-4.5 4.986,-4.5 1.095,0 1.825,0.121 2.676,0.486 -3.283,-8.514 -5.595,-12.284 -12.162,-12.284 -6.569,0 -10.947,4.257 -11.92,11.311 -3.649,-5.595 -9.487,-11.311 -18.122,-11.311 -8.272,0 -16.177,5.108 -16.177,19.582 0,16.42 10.095,42.569 31.258,42.569 6.933,0 9.852,-2.676 9.852,-6.202 l 0,-0.852 1.338,6.446 17.515,0 z"
             style="fill:#ffffff;fill-opacity:1;fill-rule:nonzero;stroke:none"
             id="path42"
             inkscape:connector-curvature="0" /></g><g
           id="g44"
           transform="translate(218.6914,200.6938)"><path
             d="m 0,0 -5.471,-25.083 c -2.201,-10.207 -6.137,-16.611 -17.078,-16.611 -6.338,0 -9.272,4.603 -9.272,9.206 0,4.536 2.868,9.139 8.138,9.139 2.668,0 6.537,-0.2 6.537,-4.469 0,-0.734 -0.132,-1.668 -0.4,-2.669 -1.667,1.401 -2.668,1.735 -4.002,1.735 -3.069,0 -4.67,-2.602 -4.67,-5.071 0,-2.335 1.401,-4.536 4.203,-4.536 3.002,0 5.137,1.334 6.671,8.206 l 2.668,11.941 c -3.869,-2.068 -7.538,-2.402 -8.138,-2.402 -10.874,0 -14.343,7.872 -14.343,17.078 0,12.743 8.739,25.684 23.616,25.684 6.204,0 12.408,-2.468 12.408,-8.939 0,-3.536 -1.267,-6.137 -4.67,-6.137 -1.067,0 -3.336,0.266 -4.603,1.734 1.668,0.467 2.935,3.802 2.935,5.47 0,1.068 -0.334,4.737 -4.603,4.737 -7.338,0 -14.81,-12.475 -14.81,-23.082 0,-5.937 2.201,-11.008 7.738,-11.008 2.469,0 4.27,0.601 5.671,2.469 L -8.606,0.067 0,0 z"
             style="fill:#ffffff;fill-opacity:1;fill-rule:nonzero;stroke:none"
             id="path46"
             inkscape:connector-curvature="0" /></g><g
           id="g48"
           transform="translate(251.4443,206.1641)"><path
             d="m 0,0 -4.803,-22.682 c -0.2,-0.867 -0.266,-1.534 -0.266,-2.134 0,-1.869 0.867,-2.469 2.735,-2.469 2.602,0 4.402,2.535 5.403,5.871 l 2.802,0 c -3.803,-10.874 -9.807,-12.342 -13.409,-12.342 -3.803,0 -6.204,2.202 -6.605,6.338 -3.335,-5.471 -7.071,-6.338 -9.873,-6.338 -4.003,0 -7.138,2.402 -7.138,8.006 0,1.267 0.2,2.735 0.534,4.336 L -26.084,0 l 9.606,0 -4.802,-22.682 c -0.134,-0.667 -0.2,-1.267 -0.2,-1.868 0,-1.534 0.533,-2.735 2.001,-2.735 2.601,0 4.336,2.535 5.336,5.871 L -9.606,0 0,0 z"
             style="fill:#ffffff;fill-opacity:1;fill-rule:nonzero;stroke:none"
             id="path50"
             inkscape:connector-curvature="0" /></g><g
           id="g52"
           transform="translate(268.6553,222.8423)"><path
             d="m 0,0 7.005,0 -8.072,-12.608 -5.003,0 L 0,0 z M 0,-16.678 -4.803,-39.36 c -0.2,-0.867 -0.267,-1.534 -0.267,-2.135 0,-1.868 0.868,-2.468 2.735,-2.468 2.603,0 5.004,2.535 6.004,5.871 l 2.803,0 c -3.803,-10.874 -10.408,-12.342 -14.01,-12.342 -4.003,0 -7.138,2.402 -7.138,8.005 0,1.268 0.199,2.736 0.533,4.337 l 4.537,21.414 9.606,0 z"
             style="fill:#ffffff;fill-opacity:1;fill-rule:nonzero;stroke:none"
             id="path54"
             inkscape:connector-curvature="0" /></g><g
           id="g56"
           transform="translate(281.3301,184.083)"><path
             d="m 0,0 c 0,-5.137 2.135,-5.204 3.336,-5.204 1.935,0 4.736,2.002 5.537,5.871 l 3.202,15.077 c 0,0.8 -0.6,2.535 -2.735,2.535 C 3.669,18.279 0,6.271 0,0 M 23.016,22.081 18.212,-0.601 c -0.199,-0.867 -0.267,-1.534 -0.267,-2.134 0,-1.869 0.867,-2.469 2.736,-2.469 0.6,0 1.001,0.067 1.467,0.267 -1.801,-4.669 -3.068,-6.738 -6.67,-6.738 -3.603,0 -6.004,2.335 -6.539,6.204 -2.001,-3.068 -5.203,-6.204 -9.94,-6.204 -4.536,0 -8.872,2.802 -8.872,10.741 0,9.006 5.537,23.349 17.144,23.349 3.803,0 5.405,-1.468 5.405,-3.402 l 0,-0.468 0.733,3.536 9.607,0 z"
             style="fill:#ffffff;fill-opacity:1;fill-rule:nonzero;stroke:none"
             id="path58"
             inkscape:connector-curvature="0" /></g><g
           id="g60"
           transform="translate(125.5117,141.502)"><path
             d="M 0,0 1.587,-23.273 56.403,-31.501 58.771,-3.879 33.964,4.791 0,0 z"
             style="fill:#444443;fill-opacity:1;fill-rule:evenodd;stroke:none"
             id="path62"
             inkscape:connector-curvature="0" /></g><g
           id="g64"
           transform="translate(151.2861,159.0278)"><path
             d="m 0,0 c 0.628,0.639 1.123,1.206 1.682,1.701 3.175,2.814 6.232,5.786 9.592,8.362 3.091,2.37 6.357,4.586 10.105,5.88 1.975,0.682 3.993,0.978 6.028,0.188 1.857,-0.722 3.258,-2.584 3.221,-4.322 C 30.597,10.319 29.755,9.256 28.68,8.364 26.479,6.539 23.871,5.488 21.21,4.562 16.091,2.779 10.807,1.671 5.473,0.782 3.894,0.518 2.309,0.287 0.726,0.046 0.542,0.018 0.353,0.021 0,0"
             style="fill:#bf272f;fill-opacity:1;fill-rule:evenodd;stroke:none"
             id="path66"
             inkscape:connector-curvature="0" /></g><g
           id="g68"
           transform="translate(165.2158,135.9687)"><path
             d="M 0,0 C 0.339,0.803 0.669,1.815 1.174,2.731 2.128,4.462 3.712,5.239 5.576,4.927 7.338,4.634 8.234,3.371 8.682,1.782 9.207,-0.085 9.453,-1.995 9.205,-3.943 9.181,-4.134 9.202,-4.331 9.274,-4.547 c 0.126,0.43 0.22,0.872 0.385,1.286 0.223,0.562 0.452,1.131 0.766,1.643 0.471,0.765 1.143,1.244 2.11,1.104 0.978,-0.14 1.644,-0.706 1.932,-1.62 0.22,-0.695 0.401,-1.438 0.394,-2.158 -0.01,-1.122 -0.154,-2.247 -0.32,-3.359 -0.133,-0.897 -0.696,-1.416 -1.597,-1.407 -0.878,0.01 -1.777,0.104 -2.626,0.325 -1.169,0.302 -1.427,0.824 -1.388,2.328 -1.11,-1.314 -2.571,-1.433 -4.083,-1.294 -1.095,0.1 -2.198,0.22 -3.265,0.468 -0.914,0.212 -1.656,0.757 -1.959,1.787 -1.464,-1.618 -3.364,-1.399 -5.216,-1.287 -1.846,0.11 -3.709,0.245 -4.943,1.94 -2.214,-1.816 -7.436,-1.544 -9.876,0.537 -0.974,-1.021 -2.251,-1.201 -3.571,-1.164 -0.951,0.025 -1.909,0.089 -2.847,0.243 -1.316,0.217 -2.589,0.576 -3.238,2.162 -0.026,-0.404 -0.042,-0.611 -0.053,-0.819 -0.058,-1.141 -0.496,-1.756 -1.599,-1.977 -1.687,-0.339 -3.375,-0.228 -4.999,0.344 -1.089,0.385 -1.467,0.944 -1.388,2.071 0.095,1.336 0.233,2.677 0.492,3.99 0.138,0.701 0.501,1.386 0.881,2.007 0.81,1.326 2.067,1.8 3.572,1.589 1.358,-0.188 2.15,-1.095 2.546,-2.32 0.289,-0.891 0.412,-1.837 0.622,-2.82 0.088,0.79 0.15,1.538 0.259,2.28 0.199,1.364 0.6,2.661 1.339,3.84 0.999,1.592 2.445,2.279 4.296,2.128 1.625,-0.132 2.654,-1.091 3.267,-2.52 0.296,-0.69 0.46,-1.436 0.649,-2.044 0.381,0.802 0.747,1.749 1.257,2.61 1.34,2.266 4.39,2.946 6.455,1.475 1.142,-0.814 1.683,-2.009 1.981,-3.331 0.131,-0.582 0.219,-1.175 0.332,-1.794 0.387,0.875 0.693,1.749 1.141,2.544 1.079,1.911 2.991,2.766 5.06,2.327 C -2.19,6.193 -1.205,4.975 -0.719,3.348 -0.374,2.193 -0.206,0.985 0,0"
             style="fill:#ffffff;fill-opacity:1;fill-rule:evenodd;stroke:none"
             id="path70"
             inkscape:connector-curvature="0" /></g><g
           id="g72"
           transform="translate(145.834,91.2998)"><path
             d="m 0,0 c -0.75,-0.507 -1.545,-0.446 -2.34,-0.203 -1.44,0.44 -2.643,1.318 -3.722,2.309 -1.479,1.356 -2.84,2.839 -4.251,4.268 0.042,0.042 0.083,0.085 0.124,0.127 C -9.215,5.604 -8.296,4.634 -7.253,3.828 -6.18,2.998 -5.031,2.24 -3.831,1.61 -2.636,0.981 -1.336,0.552 0,0"
             style="fill:#ffffff;fill-opacity:1;fill-rule:evenodd;stroke:none"
             id="path74"
             inkscape:connector-curvature="0" /></g><g
           id="g76"
           transform="translate(165.4653,94.2881)"><path
             d="m 0,0 c -2.375,-1.84 -4.778,-3.639 -7.734,-4.41 -0.727,-0.191 -1.539,-0.128 -2.303,-0.07 -0.343,0.025 -0.666,0.325 -0.983,0.595 C -6.941,-3.655 -3.352,-2.176 0,0"
             style="fill:#ffffff;fill-opacity:1;fill-rule:evenodd;stroke:none"
             id="path78"
             inkscape:connector-curvature="0" /></g><g
           id="g80"
           transform="translate(140.8965,102.4482)"><path
             d="M 0,0 C 0.155,-0.266 0.316,-0.43 0.326,-0.602 0.332,-0.704 0.023,-0.934 -0.016,-0.909 -0.197,-0.789 -0.335,-0.603 -0.489,-0.44 -0.366,-0.329 -0.243,-0.218 0,0"
             style="fill:#ffffff;fill-opacity:1;fill-rule:evenodd;stroke:none"
             id="path82"
             inkscape:connector-curvature="0" /></g><g
           id="g84"
           transform="translate(159.8281,100.7256)"><path
             d="M 0,0 C 0.173,-0.23 0.359,-0.389 0.331,-0.461 0.265,-0.626 0.108,-0.771 -0.046,-0.868 -0.083,-0.891 -0.367,-0.665 -0.352,-0.587 -0.321,-0.417 -0.172,-0.27 0,0"
             style="fill:#ffffff;fill-opacity:1;fill-rule:evenodd;stroke:none"
             id="path86"
             inkscape:connector-curvature="0" /></g><g
           id="g88"
           transform="translate(139.0698,103.0518)"><path
             d="M 0,0 C 0.297,-0.014 0.593,-0.027 0.89,-0.041 0.877,-0.16 0.866,-0.279 0.854,-0.398 0.562,-0.354 0.271,-0.311 -0.021,-0.267 -0.014,-0.178 -0.006,-0.088 0,0"
             style="fill:#ffffff;fill-opacity:1;fill-rule:evenodd;stroke:none"
             id="path90"
             inkscape:connector-curvature="0" /></g><g
           id="g92"
           transform="translate(179.4453,116.4453)"><path
             d="m 0,0 c -2.327,-2.24 -48.362,-2.583 -49.786,3.126 -1.424,5.708 -2.126,11.489 -2.126,11.489 -0.008,0.008 -0.011,0.015 -0.019,0.024 -0.332,0.35 -0.453,0.817 -0.405,1.491 0.094,1.336 0.232,2.677 0.491,3.989 0.138,0.701 0.501,1.387 0.881,2.007 0.81,1.326 2.068,1.801 3.573,1.59 1.358,-0.189 2.15,-1.096 2.546,-2.32 0.288,-0.891 0.411,-1.837 0.622,-2.821 0.088,0.79 0.149,1.538 0.258,2.28 0.2,1.365 0.601,2.662 1.34,3.84 0.998,1.592 2.445,2.28 4.295,2.128 1.626,-0.132 2.655,-1.091 3.267,-2.519 0.296,-0.691 0.461,-1.437 0.65,-2.044 0.381,0.802 0.747,1.749 1.256,2.609 1.34,2.267 4.391,2.946 6.456,1.476 1.142,-0.815 1.682,-2.009 1.98,-3.331 0.131,-0.582 0.219,-1.175 0.332,-1.794 0.387,0.875 0.693,1.749 1.141,2.544 1.079,1.911 2.992,2.765 5.061,2.327 1.768,-0.374 2.753,-1.593 3.239,-3.22 0.344,-1.154 0.512,-2.362 0.719,-3.348 0.338,0.803 0.668,1.816 1.174,2.732 0.954,1.73 2.538,2.508 4.402,2.195 1.762,-0.293 2.657,-1.555 3.105,-3.144 0.321,-1.143 0.519,-2.303 0.582,-3.477 0.362,-0.049 0.711,-0.101 1.04,-0.158 0.042,0.077 0.076,0.159 0.122,0.234 0.471,0.766 1.142,1.244 2.11,1.105 0.977,-0.141 1.644,-0.706 1.932,-1.62 C 0.457,16.694 0.639,15.951 0.632,15.231 0.63,15.081 0.61,14.931 0.604,14.781 2.225,9.775 0,1.099 0,1.099 0,1.099 2.327,2.239 0,0 m -19.969,-16.307 c 0.031,0.17 0.179,0.318 0.352,0.587 0.173,-0.23 0.359,-0.388 0.33,-0.461 -0.066,-0.165 -0.222,-0.31 -0.377,-0.407 -0.036,-0.022 -0.32,0.203 -0.305,0.281 m -1.745,-10.26 c -0.727,-0.191 -1.539,-0.128 -2.303,-0.071 -0.343,0.026 -0.666,0.326 -0.983,0.596 4.079,0.23 7.668,1.709 11.02,3.885 -2.375,-1.84 -4.778,-3.639 -7.734,-4.41 m -17.324,12.129 c 0.123,0.112 0.246,0.223 0.489,0.441 0.155,-0.266 0.317,-0.43 0.326,-0.602 0.006,-0.102 -0.303,-0.332 -0.341,-0.307 -0.182,0.12 -0.32,0.306 -0.474,0.468 m -1.358,0.778 c 0.007,0.089 0.014,0.179 0.021,0.266 0.296,-0.013 0.593,-0.027 0.889,-0.041 -0.012,-0.119 -0.023,-0.238 -0.035,-0.357 -0.292,0.044 -0.584,0.088 -0.875,0.132 m 4.444,-11.689 c -1.44,0.441 -2.643,1.319 -3.722,2.31 -1.478,1.355 -2.839,2.839 -4.25,4.268 0.041,0.042 0.082,0.084 0.123,0.126 0.974,-0.897 1.893,-1.867 2.937,-2.672 1.072,-0.83 2.222,-1.588 3.422,-2.218 1.195,-0.629 2.495,-1.059 3.831,-1.611 -0.751,-0.506 -1.545,-0.446 -2.341,-0.203 m 46.518,37.472 c -0.389,4.694 -1.667,9.079 -4.433,12.978 -1.513,2.133 -3.138,4.148 -5.144,5.831 -4.799,4.024 -10.447,5.941 -16.588,6.522 -4.38,0.415 -8.741,0.174 -13.062,-0.72 -0.39,-0.081 -0.917,0.042 -1.259,0.26 -5.739,3.658 -11.979,5.235 -18.753,4.5 -2.912,-0.317 -5.433,-1.543 -7.44,-3.73 -2.198,-2.396 -3.075,-5.394 -3.673,-8.457 -0.954,-4.891 -0.784,-9.846 -0.363,-14.774 0.342,-4.01 0.876,-8.005 1.404,-11.996 0.28,-2.119 0.592,-4.252 1.126,-6.317 1.014,-3.918 2.441,-7.703 4.193,-11.358 2.675,-5.58 6.073,-10.625 10.844,-14.666 4.176,-3.537 9.039,-5.287 14.443,-5.58 4.077,-0.222 7.968,0.656 11.664,2.361 6.804,3.135 12.072,8.113 16.546,13.996 2.685,3.529 4.75,7.436 6.542,11.482 2.452,5.537 4.004,11.287 3.962,17.392 0,0.759 0.054,1.522 -0.009,2.276"
             style="fill:#bf272f;fill-opacity:1;fill-rule:evenodd;stroke:none"
             id="path94"
             inkscape:connector-curvature="0" /></g><g
           id="g96"
           transform="translate(129.6855,121.6777)"><path
             d="m 0,0 c -0.98,-0.536 2.969,-31.701 34.538,-22.665 0,0 9.37,1.073 15.222,17.433 0,0 -7.155,7.802 -23.468,2.554 -16.314,-5.247 -0.393,-0.04 -0.393,-0.04 0,0 -6.242,4.679 -17.927,2.588 0,0 -3.917,2.352 -7.972,0.13"
             style="fill:#f4a6bf;fill-opacity:1;fill-rule:evenodd;stroke:none"
             id="path98"
             inkscape:connector-curvature="0" /></g></g></g></g></svg>