<?xml version="1.0" encoding="UTF-8" standalone="no"?>
<!-- Created with Inkscape (http://www.inkscape.org/) -->

<svg
   xmlns:dc="http://purl.org/dc/elements/1.1/"
   xmlns:cc="http://creativecommons.org/ns#"
   xmlns:rdf="http://www.w3.org/1999/02/22-rdf-syntax-ns#"
   xmlns:svg="http://www.w3.org/2000/svg"
   xmlns="http://www.w3.org/2000/svg"
   xmlns:sodipodi="http://sodipodi.sourceforge.net/DTD/sodipodi-0.dtd"
   xmlns:inkscape="http://www.inkscape.org/namespaces/inkscape"
   id="svg2"
   version="1.1"
   inkscape:version="0.48.4 r9939"
   width="32"
   height="32"
   xml:space="preserve"
   sodipodi:docname="logo_facebook.svg"><metadata
     id="metadata8"><rdf:RDF><cc:Work
         rdf:about=""><dc:format>image/svg+xml</dc:format><dc:type
           rdf:resource="http://purl.org/dc/dcmitype/StillImage" /><dc:title /></cc:Work></rdf:RDF></metadata><defs
     id="defs6"><clipPath
       clipPathUnits="userSpaceOnUse"
       id="clipPath16"><path
         d="m 0,283.46 292,0 L 292,0 0,0 0,283.46 z"
         id="path18" /></clipPath></defs><sodipodi:namedview
     pagecolor="#ffffff"
     bordercolor="#666666"
     borderopacity="1"
     objecttolerance="10"
     gridtolerance="10"
     guidetolerance="10"
     inkscape:pageopacity="0"
     inkscape:pageshadow="2"
     inkscape:window-width="1078"
     inkscape:window-height="533"
     id="namedview4"
     showgrid="false"
     inkscape:zoom="0.66605515"
     inkscape:cx="182.5"
     inkscape:cy="177.16251"
     inkscape:window-x="0"
     inkscape:window-y="24"
     inkscape:window-maximized="0"
     inkscape:current-layer="g10" /><g
     id="g10"
     inkscape:groupmode="layer"
     inkscape:label="facebook"
     transform="matrix(1.25,0,0,-1.25,0,354.325)"><g
       id="g12"
       transform="matrix(0.09275732,0,0,0.09275698,-0.73597368,257.42079)"><g
         id="g14"
         clip-path="url(#clipPath16)"><g
           id="g20"
           transform="translate(183.6104,234.4771)"><path
             d="m 0,0 c -8.608,0 -16.974,0.216 -25.319,-0.085 -4.642,-0.168 -9.336,-0.836 -13.857,-1.909 -12.148,-2.883 -20.674,-10.054 -23.872,-22.393 -1.302,-5.026 -1.749,-10.33 -2.07,-15.54 -0.343,-5.552 -0.129,-11.143 -0.044,-16.714 0.022,-1.537 -0.485,-1.95 -1.963,-1.928 -5.193,0.073 -10.388,-0.019 -15.58,0.055 -1.511,0.022 -1.935,-0.482 -1.924,-1.965 0.062,-8.55 0.071,-17.102 -0.006,-25.652 -0.015,-1.653 0.585,-2.005 2.092,-1.982 4.812,0.077 9.626,0.029 14.44,0.027 2.906,0 2.907,0 2.907,-2.818 0,-27.679 0.022,-55.357 -0.045,-83.036 -0.006,-1.96 0.553,-2.42 2.448,-2.403 10.259,0.093 20.521,0.04 30.782,0.048 0.667,0 1.334,0.067 2.265,0.116 l 0,3.192 c 0,27.487 0.016,54.978 -0.037,82.465 -0.003,1.883 0.488,2.515 2.45,2.482 6.901,-0.116 13.806,-0.019 20.711,-0.068 1.299,-0.008 1.931,0.358 2.155,1.727 1.369,8.413 2.812,16.815 4.232,25.224 0.44,2.611 0.439,2.615 -2.374,2.615 -8.359,0.001 -16.721,0.013 -25.081,-0.012 -1.214,-0.007 -2.095,0.085 -2.069,1.669 0.089,5.951 -0.082,11.912 0.201,17.853 0.27,5.648 4.632,9.51 10.284,9.54 5.765,0.031 11.529,0.06 17.291,-0.021 1.68,-0.024 2.146,0.538 2.13,2.19 C 0.072,-18.899 0.114,-10.475 0.108,-2.051 0.106,-1.435 0.044,-0.819 0,0 m 100.313,-89.087 0,-5.32 c -0.16,-1.246 -0.427,-2.486 -0.465,-3.736 -0.239,-8.305 -1.408,-16.489 -3.306,-24.559 -6.847,-29.143 -21.527,-53.651 -44.175,-73.196 -24.051,-20.755 -52.057,-31.908 -83.854,-33.384 -1.055,-0.049 -2.103,-0.302 -3.154,-0.46 l -6.081,0 c -1.115,0.16 -2.225,0.43 -3.342,0.465 -8.303,0.245 -16.488,1.404 -24.56,3.302 -29.212,6.864 -53.766,21.591 -73.327,44.316 -20.725,24.078 -31.849,52.097 -33.268,83.903 -0.044,0.995 -0.3,1.977 -0.457,2.969 l 0,6.08 c 0.159,1.054 0.429,2.102 0.459,3.16 0.229,8.369 1.401,16.614 3.31,24.749 6.892,29.351 21.727,53.986 44.605,73.575 24.023,20.569 51.955,31.602 83.618,33.014 0.992,0.044 1.975,0.299 2.962,0.457 l 6.081,0 c 1.115,-0.16 2.224,-0.427 3.344,-0.462 8.365,-0.263 16.605,-1.445 24.738,-3.36 29.218,-6.88 53.738,-21.66 73.266,-44.404 20.651,-24.045 31.735,-52.018 33.147,-83.753 0.05,-1.124 0.301,-2.236 0.459,-3.356"
             style="fill:#2b2b2a;fill-opacity:1;fill-rule:nonzero;stroke:none"
             id="path22"
             inkscape:connector-curvature="0" /></g></g></g></g></svg>